# xmcd
#
# Track frame offsets:
#	150
#	13129
#	27231
#	39885
#	52141
#	63619
#	76929
#	89377
#	103085
#	115559
#	128368
#	139190
#	151926
#	164531
#	177430
#	190487
#	202167
#	213645
#	225331
#	237209
#	249906
#	261253
#	273413
#	285072
#	297213
#
# Disc length: 4127 seconds
#
# Revision: 0
# Processed by: cddbd v1.5.2PL0 Copyright (c) Steve Scherf et al.
# Submitted via: EasyCDDAExtractor 15.3.0.1
#
DISCID=5f101d19
DTITLE=Roy Acuff - Great Speckled Bird_cd1
DYEAR=1900
DGENRE=Country
TTITLE0=Great Speckle Bird
TTITLE1=My Mountain Home Sweet Home
TTITLE2=Wabash Cannonball
TTITLE3=Freight Train Blue
TTITLE4=You've Gotta See Mama Every Night
TTITLE5=Gonna Have A Big Time Tonight
TTITLE6=Yes Sir That's My Baby
TTITLE7=You're The Only Star In My Blue Heaven
TTITLE8=Charming Betsy
TTITLE9=New Greenback Dollar
TTITLE10=Steamboat Whistle Blues
TTITLE11=Doin' It The Old Fashioned Way
TTITLE12=An Old Three Room Shack
TTITLE13=Steel Guitar Blues
TTITLE14=Sad Memories
TTITLE15=Red Lips
TTITLE16=What Would You Do With Gabriel's Trumpet
TTITLE17=Shout Oh Lulu
TTITLE18=Blue Ridge Sweetheart
TTITLE19=One Old Shirt
TTITLE20=Bonnie Blue Eyes
TTITLE21=Automobile Of Life
TTITLE22=Smoky Mountain Rag
TTITLE23=That Beatiful Picture
TTITLE24=Honky Tonk Mamas
EXTD=
EXTT0=
EXTT1=
EXTT2=
EXTT3=
EXTT4=
EXTT5=
EXTT6=
EXTT7=
EXTT8=
EXTT9=
EXTT10=
EXTT11=
EXTT12=
EXTT13=
EXTT14=
EXTT15=
EXTT16=
EXTT17=
EXTT18=
EXTT19=
EXTT20=
EXTT21=
EXTT22=
EXTT23=
EXTT24=
PLAYORDER=
